<svg width="2000" height="2000" viewBox="0 0 2000 2000" fill="none" xmlns="http://www.w3.org/2000/svg">
<path d="M1320.02 1026.47L1602.79 755.436C1673.78 687.396 1786.48 689.785 1854.52 760.772V760.772C1922.56 831.758 1920.17 944.461 1849.18 1012.5L1566.41 1283.53L1320.02 1026.47Z" fill="#40BCF4"/>
<path d="M1566.41 1283.53L1295.38 1000.76C1227.34 929.774 1229.73 817.071 1300.72 749.032V749.032C1371.7 680.993 1484.41 683.382 1552.44 754.368L1823.48 1037.14L1566.41 1283.53Z" fill="#40BCF4"/>
<path d="M737.705 1026.47L1020.48 755.435C1091.46 687.396 1204.17 689.785 1272.21 760.772V760.772C1340.25 831.758 1337.86 944.461 1266.87 1012.5L984.098 1283.53L737.705 1026.47Z" fill="#00E054"/>
<path d="M984.098 1283.53L713.066 1000.76C645.026 929.774 647.416 817.071 718.402 749.032V749.032C789.389 680.992 902.092 683.381 970.131 754.368L1241.16 1037.14L984.098 1283.53Z" fill="#00E054"/>
<path d="M170.835 1026.47L453.607 755.436C524.594 687.396 637.297 689.785 705.336 760.772V760.772C773.376 831.758 770.986 944.461 700 1012.5L417.228 1283.53L170.835 1026.47Z" fill="#FF8000"/>
<path d="M417.228 1283.53L146.196 1000.76C78.1568 929.774 80.546 817.071 151.533 749.032V749.032C222.519 680.993 335.222 683.382 403.262 754.368L674.293 1037.14L417.228 1283.53Z" fill="#FF8000"/>
<mask id="mask0_7_27" style="mask-type:alpha" maskUnits="userSpaceOnUse" x="1245" y="699" width="660" height="585">
<path d="M1320.02 1026.47L1602.79 755.436C1673.78 687.396 1786.48 689.785 1854.52 760.772V760.772C1922.56 831.759 1920.17 944.461 1849.18 1012.5L1566.41 1283.53L1320.02 1026.47Z" fill="#40BCF4"/>
<path d="M1566.41 1283.53L1295.38 1000.76C1227.34 929.774 1229.73 817.071 1300.72 749.032V749.032C1371.7 680.993 1484.41 683.382 1552.44 754.368L1823.48 1037.14L1566.41 1283.53Z" fill="#40BCF4"/>
</mask>
<g mask="url(#mask0_7_27)">
<path d="M737.706 1026.47L1020.48 755.436C1091.46 687.396 1204.17 689.785 1272.21 760.772V760.772C1340.25 831.758 1337.86 944.461 1266.87 1012.5L984.098 1283.53L737.706 1026.47Z" fill="white"/>
</g>
<mask id="mask1_7_27" style="mask-type:alpha" maskUnits="userSpaceOnUse" x="663" y="699" width="659" height="585">
<path d="M737.706 1026.47L1020.48 755.436C1091.46 687.396 1204.17 689.785 1272.21 760.772V760.772C1340.25 831.759 1337.86 944.461 1266.87 1012.5L984.098 1283.53L737.706 1026.47Z" fill="#0E1611"/>
<path d="M984.098 1283.53L713.066 1000.76C645.027 929.774 647.416 817.071 718.403 749.032V749.032C789.389 680.993 902.092 683.382 970.132 754.368L1241.16 1037.14L984.098 1283.53Z" fill="#0E1611"/>
</mask>
<g mask="url(#mask1_7_27)">
<path d="M170.835 1026.47L453.607 755.436C524.594 687.396 637.297 689.785 705.336 760.772V760.772C773.376 831.759 770.986 944.461 700 1012.5L417.228 1283.53L170.835 1026.47Z" fill="white"/>
<path d="M417.228 1283.53L146.196 1000.76C78.1568 929.774 80.546 817.071 151.533 749.032V749.032C222.519 680.993 335.222 683.382 403.262 754.368L674.293 1037.14L417.228 1283.53Z" fill="white"/>
</g>
</svg>
